<?xml version="1.0" encoding="utf-8"?>
<!-- Generator: Adobe Illustrator 24.0.0, SVG Export Plug-In . SVG Version: 6.00 Build 0)  -->
<svg version="1.1" id="Layer_1" xmlns="http://www.w3.org/2000/svg" xmlns:xlink="http://www.w3.org/1999/xlink" x="0px" y="0px"
	 viewBox="0 0 497 263.1" style="enable-background:new 0 0 497 263.1;" xml:space="preserve">
<style type="text/css">
	.st0{fill:#EFEFEF;}
	.st1{fill:#FFFFFF;}
	.st2{fill:none;stroke:#DDDDDD;stroke-width:9;stroke-linecap:round;stroke-linejoin:round;}
	.st3{fill:none;stroke:#DDDDDD;stroke-width:9;stroke-linejoin:round;}
</style>
<title>empty</title>
<path id="Background" class="st0" d="M377.3,233.5H142.4c-10.9-0.2-19.6-9.3-19.4-20.3c0.2-10.6,8.8-19.2,19.4-19.4H32
	c-10.9,0-19.8-8.9-19.8-19.8c0-10.9,8.9-19.8,19.8-19.8h113.2c10.9-0.2,19.6-9.3,19.4-20.3c-0.2-10.6-8.8-19.2-19.4-19.4H74.4
	c-10.9,0-19.8-8.9-19.8-19.8S63.5,75,74.4,75l0,0h113.2c-10.9,0-19.8-8.9-19.8-19.8s8.9-19.8,19.8-19.8l0,0H465
	c10.9,0,19.8,8.9,19.8,19.8S476,75,465,75H351.8c10.9,0,19.8,8.9,19.8,19.8s-8.9,19.8-19.8,19.8h62.3c10.9-0.2,20,8.4,20.3,19.4
	c0.2,10.9-8.4,20-19.4,20.3c-0.3,0-0.6,0-0.9,0h-28.8c-13.8,0-25,8.9-25,19.8s17,19.8,17,19.8c10.9,0.2,19.6,9.3,19.4,20.3
	C396.4,224.7,387.9,233.2,377.3,233.5L377.3,233.5z M465,154.2c-10.9,0-19.8-8.9-19.8-19.8c0-10.9,8.9-19.8,19.8-19.8
	c10.9,0,19.8,8.9,19.8,19.8c0,0,0,0,0,0C484.8,145.4,476,154.2,465,154.2z"/>
<path id="Path" class="st1" d="M213.5,172.1c-0.2,1.6-0.3,3.2-0.3,4.8c0,18.8,15.2,34,34,34s34-15.2,34-34c0-1.6-0.1-3.2-0.3-4.8
	h82.4v75.5c0,4.7-3.8,8.5-8.5,8.5c0,0,0,0,0,0H139.5c-4.7,0-8.5-3.8-8.5-8.5c0,0,0,0,0,0v-75.5H213.5z"/>
<path id="Path-2" class="st1" d="M283.9,171.2c0,20.3-16.5,36.8-36.8,36.8s-36.8-16.5-36.8-36.8c0-0.6,0-1.3,0.1-1.9H131l27.1-80
	c1.2-3.4,4.4-5.8,8-5.8H328c3.6,0,6.9,2.3,8,5.8l27.1,80h-79.3C283.8,169.9,283.9,170.6,283.9,171.2z"/>
<path id="Path-3" class="st0" d="M278.5,173.9c0,15.7-14.1,31.3-31.4,31.3s-31.4-15.6-31.4-31.3c0-0.5,0-3.8,0.1-4.3h-59.3
	l23.1-56.2c1.1-2.8,3.9-4.6,6.9-4.5h121.2c3-0.1,5.7,1.7,6.9,4.5l23.1,56.2h-59.2C278.5,170.1,278.5,173.4,278.5,173.9z"/>
<path id="Shape-2" class="st2" d="M149.6,168.4L149.6,168.4z"/>
<g>
	<path id="Rectangle" class="st3" d="M168.5,83.5h157.1c5,0.2,9.4,3.4,11.2,8l26.3,77.8l0,0v75.5c0,4.7-3.7,8.5-8.4,8.6
		c0,0-0.1,0-0.1,0H139.5c-4.7,0-8.5-3.8-8.5-8.5c0,0,0-0.1,0-0.1v-75.5l0,0l26.3-77.8C159.1,86.8,163.5,83.7,168.5,83.5z"/>
	<path id="Shape" class="st2" d="M170.7,168.4h36.1c5.3,0,5.3,3.7,5.3,5.7c0,18.8,15.6,34,34.8,34s34.7-15.2,34.7-34
		c0-1.9,0-5.7,5.3-5.7h70.6"/>
	<path id="lines" class="st2" d="M244.5,7v47.4"/>
	<path id="lines-2" class="st2" d="M170.7,19.2L202,54.5"/>
	<path id="lines-3" class="st2" d="M318.1,19.2l-31.4,35.3"/>
</g>
</svg>
