<svg width="69" height="68" viewBox="0 0 69 68" fill="none" xmlns="http://www.w3.org/2000/svg">
<g clip-path="url(#clip0)">
<path d="M43.4823 0.542969H15.6915C11.5099 0.542969 8.05078 3.96484 8.05078 8.12286V60.3801C8.05078 64.5381 11.5099 67.96 15.6915 67.96H53.4115C57.5931 67.96 61.0514 64.5381 61.0514 60.3801V18.8687L43.4823 0.542969Z" fill="#FAFAFA"/>
<path d="M43.5703 0.597656L61.0711 18.8888H49.4209C46.1861 18.8888 43.5703 16.2882 43.5703 13.0717V0.597656Z" fill="#0D81C2"/>
<path d="M33.2945 24.8127C33.6214 24.4704 34.0688 24.2651 34.5504 24.2651C35.0317 24.2651 35.4795 24.4704 35.8068 24.8127L45.8733 35.5754C46.5272 36.2597 46.4754 37.3547 45.7868 37.9879C45.0991 38.6381 43.9979 38.5871 43.361 37.9024L36.2715 30.3225V49.0074C36.2715 49.9485 35.4968 50.7188 34.5504 50.7188C33.6036 50.7188 32.8294 49.9485 32.8294 49.0074V30.3225L25.7398 37.9024C25.086 38.5871 24.0018 38.6381 23.3136 37.9879C22.625 37.3378 22.5733 36.2597 23.2271 35.5754L33.2945 24.8127Z" fill="#0D81C2"/>
</g>
<defs>
<clipPath id="clip0">
<rect x="0.632812" y="0.542969" width="67.8" height="67.417" fill="white"/>
</clipPath>
</defs>
</svg>
